<?xml version="1.0" encoding="UTF-8"?> <svg xmlns="http://www.w3.org/2000/svg" width="202.379" height="80.952" viewBox="0 0 202.379 80.952"><g id="logo" transform="translate(-250.17 -247.667)"><path id="Trazado_1" data-name="Trazado 1" d="M291.931,286.525H281.9a1.258,1.258,0,1,1,0-2.517h10.026a1.258,1.258,0,0,1,0,2.517m26.3-28.783c-2.84-.748-4.335,2.542-4.335,2.542s-2.542,5.085-4.636,10.467-3.58,8.647-5.075,8.346-1.613-5.107-1.613-5.107l-1.236-13.407c-.2-10.788-3.29-11.064-3.29-11.064-3.263.15-2.542,4.934-2.542,4.934l.647,18.391c0,4.188-1.2,4.188-1.2,4.188-1.4.4-1.8-2.792-1.8-2.792l-4.186-15.152s-2.791-12.36-6.18-11.362-2.193,4.983-2.193,4.983l3.389,14.556s2.991,10.565,1.2,11.165-3.588-3.19-3.588-3.19l-7.178-12.76s-4.187-8.474-8.175-5.982c-3.825,2.392,6.579,18.142,6.579,18.142a68.156,68.156,0,0,1,7.059,16.091,1.254,1.254,0,0,0,1.148.79h11.485a1.254,1.254,0,0,1,.444,2.428h-.434a1.256,1.256,0,0,0-.3,2.478,1.188,1.188,0,0,0,.3.039H304.1a1.256,1.256,0,0,0,.455-2.428,1.232,1.232,0,0,0-.455-.089h-3.343a1.256,1.256,0,0,1,.522-2.4h6.462a1.255,1.255,0,0,0-.411-2.44l-1.2-.013c.045-.01.091-.015.136-.021l-2.694-.007-.665-.006c-.018,0-.036,0-.055,0l-7.495-.019a1.259,1.259,0,0,1,.013-2.518l5.521.015h.013l10.027.049a1.182,1.182,0,0,0,.229-.024h.023a1.25,1.25,0,0,0,.161-.05,1.347,1.347,0,0,0,.679-.557,1.518,1.518,0,0,0,.152-.332,195.343,195.343,0,0,1,5.312-19.511s3.589-7.625.747-8.374" transform="translate(-4.662)" fill="#6ebe4a"></path><path id="Trazado_2" data-name="Trazado 2" d="M331.079,318.006h-5.512a1.26,1.26,0,0,0,0,2.52h5.512a1.26,1.26,0,0,0,0-2.52" transform="translate(-22.695 -21.532)" fill="#6ebe4a"></path><path id="Trazado_3" data-name="Trazado 3" d="M275.042,329.165h4.286l.009,0h3.38a1.259,1.259,0,0,0,.25-2.493,1.234,1.234,0,0,0-.25-.024H266.66a1.227,1.227,0,0,0-.249.024h-1.495a1.259,1.259,0,1,1,0-2.519h10.125v-.008h19.04a1.259,1.259,0,0,0,0-2.517h-19.04V321.6H271.66a.479.479,0,0,1-.044.025H253.049a1.321,1.321,0,0,0-.375.064c-.777.164-2.5.726-2.5,2.492a4.883,4.883,0,0,0,1.561,3.186c.125.128.254.249.389.366.047.033.093.067.142.1a9.214,9.214,0,0,0,3.589,1.172c.532.075,1.049.124,1.52.155h17.671Z" transform="translate(0 -22.633)" fill="#6ebe4a"></path><path id="Trazado_4" data-name="Trazado 4" d="M304.694,330.047a1.259,1.259,0,0,0,1.259,1.259h7.484a1.259,1.259,0,1,0,0-2.518h-7.484a1.259,1.259,0,0,0-1.259,1.259" transform="translate(-16.691 -24.832)" fill="#6ebe4a"></path><path id="Trazado_5" data-name="Trazado 5" d="M328.253,328.788h-2.991a1.259,1.259,0,1,0,0,2.518h2.991a1.259,1.259,0,1,0,0-2.518" transform="translate(-22.601 -24.832)" fill="#6ebe4a"></path><path id="Trazado_6" data-name="Trazado 6" d="M304.678,350.517h-6.138a1.259,1.259,0,1,0,0,2.517h6.138a1.259,1.259,0,0,0,0-2.517" transform="translate(-14.421 -31.484)" fill="#6ebe4a"></path><path id="Trazado_7" data-name="Trazado 7" d="M286.226,316.589a1.242,1.242,0,0,0,.553.3,1.213,1.213,0,0,0,.294.039h6.378a1.214,1.214,0,0,0,.295-.039,1.252,1.252,0,0,0,.069-2.419,1.193,1.193,0,0,0-.364-.061h-6.378a1.192,1.192,0,0,0-.363.061,1.244,1.244,0,0,0-.7.532,1.082,1.082,0,0,0-.058.1c-.006.013-.015.025-.02.037a1.24,1.24,0,0,0-.094.287,1.337,1.337,0,0,0-.024.239,1.24,1.24,0,0,0,.138.561,1.253,1.253,0,0,0,.273.364" transform="translate(-10.911 -20.429)" fill="#6ebe4a"></path><path id="Trazado_8" data-name="Trazado 8" d="M288.22,338.648a1.277,1.277,0,0,0,.454-.086c.021-.01.041-.017.062-.026a1.257,1.257,0,0,0-.516-2.4h-8.647v0H266.824l.013,0h-.6a1.258,1.258,0,1,0,0,2.515H288.22Z" transform="translate(-4.531 -27.079)" fill="#6ebe4a"></path><path id="Trazado_9" data-name="Trazado 9" d="M314.215,335.99H298.884a1.255,1.255,0,0,0-.13,2.5,1.154,1.154,0,0,0,.13.013h1.493a.673.673,0,0,1,.119.012,1.259,1.259,0,0,1,0,2.467,1.292,1.292,0,0,1-.25.024H285.053c-.029.006-.056.017-.085.025a1.255,1.255,0,0,0,.334,2.466h24.879a1.258,1.258,0,0,0,.249-2.491h-.912a1.256,1.256,0,0,1-1.259-1.259,1.254,1.254,0,0,1,1.129-1.245h4.826a1.151,1.151,0,0,0,.131-.013,1.255,1.255,0,0,0-.131-2.5" transform="translate(-10.369 -27.037)" fill="#6ebe4a"></path><path id="Trazado_10" data-name="Trazado 10" d="M350.148,321.26l3.553-8.616,3.6,8.616Zm33.792,1.377c0,2.619-1.6,4.4-4.086,4.4s-3.864-1.555-3.864-4.4V309.669h-6.44v14.21a12.293,12.293,0,0,0,.207,2.291,1.754,1.754,0,0,1-1.959.9,3.375,3.375,0,0,1-1.041-1.37l-10.882-22.783a7.2,7.2,0,0,0-6.927-4,9.106,9.106,0,0,0-3.953.756v5.285a5.672,5.672,0,0,1,2.31-.488,3.145,3.145,0,0,1,2.664,1.6l-9.06,19.142a2.867,2.867,0,0,1-3.241,1.731v6c4.352.311,7.772-1.155,9.237-4.4l.8-1.867h12.078l.844,2.087a6.885,6.885,0,0,0,6.883,4.264,7.9,7.9,0,0,0,3.776-.756,8.932,8.932,0,0,0,1.4-.958,8.72,8.72,0,0,0,5.52,1.759,7.605,7.605,0,0,0,5.728-2.265v2.041a5.548,5.548,0,0,1-5.774,5.863,12.926,12.926,0,0,1-7.1-2v6.219a17.18,17.18,0,0,0,7.1,1.377c6.928,0,12.259-4.663,12.259-11.769v-22.87H383.94Z" transform="translate(-26.784 -15.689)" fill="#777779"></path><path id="Trazado_11" data-name="Trazado 11" d="M455.607,332c-3.2,0-5.417-2.177-5.417-5.819v-1.065c0-3.687,2.22-5.863,5.419-5.863,3.243,0,5.551,2.31,5.551,6.4S458.849,332,455.607,332m-21.651-5.818c0,3.642-2.22,5.819-5.417,5.819-3.243,0-5.551-2.266-5.551-6.352s2.309-6.395,5.551-6.395c3.2,0,5.417,2.175,5.417,5.862ZM456.63,313.7c-3.243,0-5.6,1.2-6.8,2.665v-2.175l-6.128,0v17.4a2.99,2.99,0,0,1-1.4.318A1.773,1.773,0,0,1,440.4,330v-15.81h-6.083v2.175c-1.2-1.465-3.553-2.665-6.8-2.665-6.483,0-11.1,4.753-11.1,11.947s4.62,11.947,11.1,11.947a8.927,8.927,0,0,0,7.107-2.931,6.133,6.133,0,0,0,5.551,2.841,8.333,8.333,0,0,0,3.529-.6v11.523h6.484l0-13.191a8.8,8.8,0,0,0,6.439,2.354c6.483,0,11.058-4.75,11.058-11.946S463.114,313.7,456.63,313.7" transform="translate(-50.89 -20.215)" fill="#777779"></path><path id="Trazado_12" data-name="Trazado 12" d="M507.416,323.61h-7.728v-.266c0-2.8,1.377-4.708,3.953-4.708,2.709,0,3.775,2.088,3.775,4.619Zm-3.775-9.9c-6.616,0-10.836,4.53-10.836,11.945,0,7.728,5.639,11.949,12.7,11.949a15.73,15.73,0,0,0,7.017-1.465l0-5.818a10.661,10.661,0,0,1-6.662,2.086c-3.641,0-5.952-1.731-6.173-4.618h14.3v-3.154c0-6.4-3.73-10.925-10.347-10.925" transform="translate(-74.274 -20.216)" fill="#777779"></path><path id="Trazado_13" data-name="Trazado 13" d="M535.779,326.626a1.76,1.76,0,0,1-1.864-1.909v-28.29h-6.485v30.333c0,3.508,2.887,5.462,6.219,5.462a8.033,8.033,0,0,0,3.773-.71v-5.329a3.118,3.118,0,0,1-1.643.443" transform="translate(-84.873 -14.926)" fill="#777779"></path><path id="Trazado_14" data-name="Trazado 14" d="M375.868,289.934a7.955,7.955,0,0,1-6.785,3.488c-5.082,0-8.762-3.1-8.762-9.723s3.351-9.834,8.324-9.834c6.536,0,7.113,5.576,7.113,6.4l-2.857.494s-.164-4.174-4.229-4.174c-2.857,0-5.165,2.087-5.165,7.114,0,5.109,2.8,7,5.741,7a6.241,6.241,0,0,0,4.78-2.719Z" transform="translate(-33.719 -8.019)" fill="#777779"></path><path id="Trazado_15" data-name="Trazado 15" d="M400.385,283.672c0-5.246-2.472-7.087-5.192-7.087-2.746,0-5.219,1.84-5.219,7.087,0,5.163,2.472,7.059,5.219,7.059s5.192-1.9,5.192-7.059m-13.624,0c0-6.785,3.873-9.807,8.432-9.807,4.533,0,8.405,3.022,8.405,9.807s-3.9,9.75-8.405,9.75c-4.532,0-8.432-2.966-8.432-9.75" transform="translate(-41.812 -8.019)" fill="#777779"></path><path id="Trazado_16" data-name="Trazado 16" d="M422.381,283.443c2.418,0,4.231-1.154,4.231-3.351,0-2.115-1.429-3.433-3.956-3.433h-3.27v6.785Zm9.751,9.86a10.122,10.122,0,0,1-1.73.137c-5.466,0-4.231-7.636-8.378-7.636h-2.638v7.526h-3.131V274.1h6.511c4.477,0,6.976,1.7,6.976,5.906a4.958,4.958,0,0,1-3.516,4.916c2.226,1.456,2.445,6.043,5.138,6.043h.769Z" transform="translate(-50.841 -8.092)" fill="#777779"></path><path id="Trazado_17" data-name="Trazado 17" d="M450.214,284.157c2.8,0,4.229-1.264,4.229-3.654,0-2.279-1.4-3.845-4.34-3.845H447.11v7.5Zm-6.235,9.174V274.1h6.373c4.476,0,7.223,2.088,7.223,6.4,0,4.258-2.911,6.18-6.813,6.18H447.11v6.647Z" transform="translate(-59.328 -8.092)" fill="#777779"></path><path id="Trazado_18" data-name="Trazado 18" d="M480.864,283.672c0-5.246-2.471-7.087-5.192-7.087-2.745,0-5.218,1.84-5.218,7.087,0,5.163,2.473,7.059,5.218,7.059s5.192-1.9,5.192-7.059m-13.623,0c0-6.785,3.873-9.807,8.431-9.807,4.534,0,8.406,3.022,8.406,9.807s-3.9,9.75-8.406,9.75c-4.531,0-8.431-2.966-8.431-9.75" transform="translate(-66.448 -8.019)" fill="#777779"></path></g></svg> 